<svg width="946" height="368" viewBox="0 0 946 368" fill="none" xmlns="http://www.w3.org/2000/svg">
<path d="M77 0L87.8894 66.1106L154 77L87.8894 87.8894L77 154L66.1106 87.8894L0 77L66.1106 66.1106L77 0Z" fill="#8578DF"/>
<path d="M869 0L858.111 66.1106L792 77L858.111 87.8894L869 154L879.889 87.8894L946 77L879.889 66.1106L869 0Z" fill="#8578DF"/>
<path d="M131 214L141.889 280.111L208 291L141.889 301.889L131 368L120.111 301.889L54 291L120.111 280.111L131 214Z" fill="#8578DF"/>
<path d="M815 214L804.111 280.111L738 291L804.111 301.889L815 368L825.889 301.889L892 291L825.889 280.111L815 214Z" fill="#8578DF"/>
</svg>
